# xmcd
#
# Track frame offsets: 
#        200
#        13500
#        28127
#        40692
#        63055
#        76100
#        90252
#        104082
#        119350
#        131982
#        145682
#        161557
#        177700
#        191682
#        208045
#        226617
#        240295
#        261837
#        276127
#
# Disc length: 3862 seconds
#
# Revision: 0
# Processed by: cddbd v1.4PL0 Copyright (c) Steve Scherf et al.
# Submitted via: ExactAudioCopy v0.90b4
#
DISCID=fb0f1413
DTITLE=Vern Gosdin - Warning: Contains Country Music (The Great Ballad
DTITLE=s Of Vern Gosdin)
DYEAR=1900
DGENRE=Country
TTITLE0=Hangin' On (With Emmylou Harris)
TTITLE1=Yesterday's Gone (With Emmylou Harris)
TTITLE2=Till The End (With Janie Frickie)
TTITLE3=The First Time Ever I Saw Your Face
TTITLE4=Never My Love
TTITLE5=Sarah's Eyes
TTITLE6=Today My World Slipped Away
TTITLE7=If You're Gonna Do Me Wrong (Do Me Right)
TTITLE8=What Would Your Memories Do
TTITLE9=You Never Cross My Mind (Previously Unreleased)
TTITLE10=If Jesus Comes Tomorrow (What Then)
TTITLE11=Time Stood Still
TTITLE12=Was It Just The Wine
TTITLE13=Do You Believe Me Now
TTITLE14=Chiseled In Stone
TTITLE15=Is It Raining At Your House
TTITLE16=Alone
TTITLE17=The Number
TTITLE18=Dream Of Me
EXTD=
EXTT0=
EXTT1=
EXTT2=
EXTT3=
EXTT4=
EXTT5=
EXTT6=
EXTT7=
EXTT8=
EXTT9=
EXTT10=
EXTT11=
EXTT12=
EXTT13=
EXTT14=
EXTT15=
EXTT16=
EXTT17=
EXTT18=
PLAYORDER=
